<?xml version="1.0" encoding="UTF-8" standalone="no"?>
<!DOCTYPE svg PUBLIC "-//W3C//DTD SVG 1.1//EN"
 "http://www.w3.org/Graphics/SVG/1.1/DTD/svg11.dtd">
<!-- Generated by graphviz version 2.40.1 (20161225.0304)
 -->
<!-- Title: dependencies Pages: 1 -->
<svg width="4300pt" height="284pt"
 viewBox="0.00 0.00 4300.00 284.00" xmlns="http://www.w3.org/2000/svg" xmlns:xlink="http://www.w3.org/1999/xlink">
<g id="graph0" class="graph" transform="scale(1 1) rotate(0) translate(4 280)">
<title>dependencies</title>
<polygon fill="#ffffff" stroke="transparent" points="-4,4 -4,-280 4296,-280 4296,4 -4,4"/>
<text text-anchor="start" x="2125.0091" y="-42.4" font-family="sans-serif" font-weight="bold" font-size="14.00" fill="#000000">Legend</text>
<polygon fill="#ffffb3" stroke="transparent" points="1912,-10 1912,-30 1932,-30 1932,-10 1912,-10"/>
<text text-anchor="start" x="1935.629" y="-15.4" font-family="sans-serif" font-size="14.00" fill="#000000"> &#160;Declarations</text>
<polygon fill="#8dd3c7" stroke="transparent" points="2025,-10 2025,-30 2045,-30 2045,-10 2025,-10"/>
<text text-anchor="start" x="2048.7251" y="-15.4" font-family="sans-serif" font-size="14.00" fill="#000000"> &#160;Module</text>
<polygon fill="#80b1d3" stroke="transparent" points="2111,-10 2111,-30 2131,-30 2131,-10 2111,-10"/>
<text text-anchor="start" x="2134.7812" y="-15.4" font-family="sans-serif" font-size="14.00" fill="#000000"> &#160;Bootstrap</text>
<polygon fill="#fdb462" stroke="transparent" points="2208,-10 2208,-30 2228,-30 2228,-10 2208,-10"/>
<text text-anchor="start" x="2231.6732" y="-15.4" font-family="sans-serif" font-size="14.00" fill="#000000"> &#160;Providers</text>
<polygon fill="#fb8072" stroke="transparent" points="2304,-10 2304,-30 2324,-30 2324,-10 2304,-10"/>
<text text-anchor="start" x="2327.7258" y="-15.4" font-family="sans-serif" font-size="14.00" fill="#000000"> &#160;Exports</text>
<g id="clust1" class="cluster">
<title>cluster_AppModule</title>
<polygon fill="none" stroke="#000000" stroke-dasharray="1,5" points="8,-70 8,-268 3954,-268 3954,-70 8,-70"/>
</g>
<g id="clust2" class="cluster">
<title>cluster_AppModule_declarations</title>
<polygon fill="none" stroke="#000000" points="770,-78 770,-130 3946,-130 3946,-78 770,-78"/>
</g>
<g id="clust23" class="cluster">
<title>cluster_AppModule_imports</title>
<polygon fill="none" stroke="#000000" points="618,-78 618,-130 762,-130 762,-78 618,-78"/>
</g>
<g id="clust24" class="cluster">
<title>cluster_AppModule_exports</title>
<polygon fill="none" stroke="#000000" points="1443,-208 1443,-260 2340,-260 2340,-208 1443,-208"/>
</g>
<g id="clust26" class="cluster">
<title>cluster_AppModule_providers</title>
<polygon fill="none" stroke="#000000" points="16,-78 16,-130 610,-130 610,-78 16,-78"/>
</g>
<g id="clust33" class="cluster">
<title>cluster_ChatModule</title>
<polygon fill="none" stroke="#000000" stroke-dasharray="1,5" points="3962,-70 3962,-195 4074,-195 4074,-70 3962,-70"/>
</g>
<g id="clust34" class="cluster">
<title>cluster_ChatModule_declarations</title>
<polygon fill="none" stroke="#000000" points="3970,-78 3970,-130 4066,-130 4066,-78 3970,-78"/>
</g>
<g id="clust40" class="cluster">
<title>cluster_ModulModule</title>
<polygon fill="none" stroke="#000000" stroke-dasharray="1,5" points="4082,-70 4082,-195 4284,-195 4284,-70 4082,-70"/>
</g>
<g id="clust41" class="cluster">
<title>cluster_ModulModule_declarations</title>
<polygon fill="none" stroke="#000000" points="4090,-78 4090,-130 4276,-130 4276,-78 4090,-78"/>
</g>
<!-- AppComponent -->
<g id="node1" class="node">
<title>AppComponent</title>
<polygon fill="#ffffb3" stroke="#000000" points="3937.9399,-122 3832.0601,-122 3832.0601,-86 3937.9399,-86 3937.9399,-122"/>
<text text-anchor="middle" x="3885" y="-99.8" font-family="Times,serif" font-size="14.00" fill="#000000">AppComponent</text>
</g>
<!-- AppModule -->
<g id="node21" class="node">
<title>AppModule</title>
<polygon fill="#8dd3c7" stroke="#000000" points="2032.6571,-187 2029.6571,-191 2008.6571,-191 2005.6571,-187 1949.3429,-187 1949.3429,-151 2032.6571,-151 2032.6571,-187"/>
<text text-anchor="middle" x="1991" y="-164.8" font-family="Times,serif" font-size="14.00" fill="#000000">AppModule</text>
</g>
<!-- AppComponent&#45;&gt;AppModule -->
<g id="edge1" class="edge">
<title>AppComponent&#45;&gt;AppModule</title>
<path fill="none" stroke="#000000" d="M3885,-122.2921C3885,-144.2057 3885,-178 3885,-178 3885,-178 2042.7662,-178 2042.7662,-178"/>
<polygon fill="#000000" stroke="#000000" points="2042.7663,-174.5001 2032.7662,-178 2042.7662,-181.5001 2042.7663,-174.5001"/>
</g>
<!-- DashboardComponent -->
<g id="node2" class="node">
<title>DashboardComponent</title>
<polygon fill="#ffffb3" stroke="#000000" points="3813.9734,-122 3672.0266,-122 3672.0266,-86 3813.9734,-86 3813.9734,-122"/>
<text text-anchor="middle" x="3743" y="-99.8" font-family="Times,serif" font-size="14.00" fill="#000000">DashboardComponent</text>
</g>
<!-- DashboardComponent&#45;&gt;AppModule -->
<g id="edge2" class="edge">
<title>DashboardComponent&#45;&gt;AppModule</title>
<path fill="none" stroke="#000000" d="M3743,-122.1686C3743,-143.498 3743,-176 3743,-176 3743,-176 2043.009,-176 2043.009,-176"/>
<polygon fill="#000000" stroke="#000000" points="2043.009,-172.5001 2033.009,-176 2043.009,-179.5001 2043.009,-172.5001"/>
</g>
<!-- DialogComponent -->
<g id="node3" class="node">
<title>DialogComponent</title>
<polygon fill="#ffffb3" stroke="#000000" points="3653.9356,-122 3534.0644,-122 3534.0644,-86 3653.9356,-86 3653.9356,-122"/>
<text text-anchor="middle" x="3594" y="-99.8" font-family="Times,serif" font-size="14.00" fill="#000000">DialogComponent</text>
</g>
<!-- DialogComponent&#45;&gt;AppModule -->
<g id="edge3" class="edge">
<title>DialogComponent&#45;&gt;AppModule</title>
<path fill="none" stroke="#000000" d="M3594,-122.0267C3594,-142.7672 3594,-174 3594,-174 3594,-174 2043.0524,-174 2043.0524,-174"/>
<polygon fill="#000000" stroke="#000000" points="2043.0524,-170.5001 2033.0524,-174 2043.0524,-177.5001 2043.0524,-170.5001"/>
</g>
<!-- FoodDetailComponent -->
<g id="node4" class="node">
<title>FoodDetailComponent</title>
<polygon fill="#ffffb3" stroke="#000000" points="3516.323,-122 3371.677,-122 3371.677,-86 3516.323,-86 3516.323,-122"/>
<text text-anchor="middle" x="3444" y="-99.8" font-family="Times,serif" font-size="14.00" fill="#000000">FoodDetailComponent</text>
</g>
<!-- FoodDetailComponent&#45;&gt;AppModule -->
<g id="edge4" class="edge">
<title>FoodDetailComponent&#45;&gt;AppModule</title>
<path fill="none" stroke="#000000" d="M3444,-122.2228C3444,-142.3652 3444,-172 3444,-172 3444,-172 2042.9185,-172 2042.9185,-172"/>
<polygon fill="#000000" stroke="#000000" points="2042.9185,-168.5001 2032.9185,-172 2042.9184,-175.5001 2042.9185,-168.5001"/>
</g>
<!-- FoodListComponent -->
<g id="node5" class="node">
<title>FoodListComponent</title>
<polygon fill="#ffffb3" stroke="#000000" points="3353.8934,-122 3222.1066,-122 3222.1066,-86 3353.8934,-86 3353.8934,-122"/>
<text text-anchor="middle" x="3288" y="-99.8" font-family="Times,serif" font-size="14.00" fill="#000000">FoodListComponent</text>
</g>
<!-- FoodListComponent&#45;&gt;AppModule -->
<g id="edge5" class="edge">
<title>FoodListComponent&#45;&gt;AppModule</title>
<path fill="none" stroke="#000000" d="M3288,-122.1061C3288,-141.3391 3288,-169 3288,-169 3288,-169 2042.6845,-169 2042.6845,-169"/>
<polygon fill="#000000" stroke="#000000" points="2042.6846,-165.5001 2032.6845,-169 2042.6845,-172.5001 2042.6846,-165.5001"/>
</g>
<!-- ForgotPasswordComponent -->
<g id="node6" class="node">
<title>ForgotPasswordComponent</title>
<polygon fill="#ffffb3" stroke="#000000" points="3204.3201,-122 3031.6799,-122 3031.6799,-86 3204.3201,-86 3204.3201,-122"/>
<text text-anchor="middle" x="3118" y="-99.8" font-family="Times,serif" font-size="14.00" fill="#000000">ForgotPasswordComponent</text>
</g>
<!-- ForgotPasswordComponent&#45;&gt;AppModule -->
<g id="edge6" class="edge">
<title>ForgotPasswordComponent&#45;&gt;AppModule</title>
<path fill="none" stroke="#000000" d="M3118,-122.2222C3118,-140.8285 3118,-167 3118,-167 3118,-167 2042.7844,-167 2042.7844,-167"/>
<polygon fill="#000000" stroke="#000000" points="2042.7844,-163.5001 2032.7844,-167 2042.7843,-170.5001 2042.7844,-163.5001"/>
</g>
<!-- HomePageComponent -->
<g id="node7" class="node">
<title>HomePageComponent</title>
<polygon fill="#ffffb3" stroke="#000000" points="3013.2562,-122 2870.7438,-122 2870.7438,-86 3013.2562,-86 3013.2562,-122"/>
<text text-anchor="middle" x="2942" y="-99.8" font-family="Times,serif" font-size="14.00" fill="#000000">HomePageComponent</text>
</g>
<!-- HomePageComponent&#45;&gt;AppModule -->
<g id="edge7" class="edge">
<title>HomePageComponent&#45;&gt;AppModule</title>
<path fill="none" stroke="#000000" d="M2942,-122.302C2942,-140.2699 2942,-165 2942,-165 2942,-165 2042.7821,-165 2042.7821,-165"/>
<polygon fill="#000000" stroke="#000000" points="2042.7821,-161.5001 2032.7821,-165 2042.782,-168.5001 2042.7821,-161.5001"/>
</g>
<!-- LoginPageComponent -->
<g id="node8" class="node">
<title>LoginPageComponent</title>
<polygon fill="#ffffb3" stroke="#000000" points="2852.9874,-122 2711.0126,-122 2711.0126,-86 2852.9874,-86 2852.9874,-122"/>
<text text-anchor="middle" x="2782" y="-99.8" font-family="Times,serif" font-size="14.00" fill="#000000">LoginPageComponent</text>
</g>
<!-- LoginPageComponent&#45;&gt;AppModule -->
<g id="edge8" class="edge">
<title>LoginPageComponent&#45;&gt;AppModule</title>
<path fill="none" stroke="#000000" d="M2782,-122.0225C2782,-139.3734 2782,-163 2782,-163 2782,-163 2042.6911,-163 2042.6911,-163"/>
<polygon fill="#000000" stroke="#000000" points="2042.6911,-159.5001 2032.6911,-163 2042.6911,-166.5001 2042.6911,-159.5001"/>
</g>
<!-- LongPressDirective -->
<g id="node9" class="node">
<title>LongPressDirective</title>
<polygon fill="#ffffb3" stroke="#000000" points="2692.6825,-122 2565.3175,-122 2565.3175,-86 2692.6825,-86 2692.6825,-122"/>
<text text-anchor="middle" x="2629" y="-99.8" font-family="Times,serif" font-size="14.00" fill="#000000">LongPressDirective</text>
</g>
<!-- LongPressDirective&#45;&gt;AppModule -->
<g id="edge9" class="edge">
<title>LongPressDirective&#45;&gt;AppModule</title>
<path fill="none" stroke="#000000" d="M2629,-122.027C2629,-138.3976 2629,-160 2629,-160 2629,-160 2042.861,-160 2042.861,-160"/>
<polygon fill="#000000" stroke="#000000" points="2042.861,-156.5001 2032.861,-160 2042.8609,-163.5001 2042.861,-156.5001"/>
</g>
<!-- PolicyListComponent -->
<g id="node10" class="node">
<title>PolicyListComponent</title>
<polygon fill="#ffffb3" stroke="#000000" points="2547.3892,-122 2408.6108,-122 2408.6108,-86 2547.3892,-86 2547.3892,-122"/>
<text text-anchor="middle" x="2478" y="-99.8" font-family="Times,serif" font-size="14.00" fill="#000000">PolicyListComponent</text>
</g>
<!-- PolicyListComponent&#45;&gt;AppModule -->
<g id="edge10" class="edge">
<title>PolicyListComponent&#45;&gt;AppModule</title>
<path fill="none" stroke="#000000" d="M2478,-122.2819C2478,-137.9478 2478,-158 2478,-158 2478,-158 2042.9428,-158 2042.9428,-158"/>
<polygon fill="#000000" stroke="#000000" points="2042.9429,-154.5001 2032.9428,-158 2042.9428,-161.5001 2042.9429,-154.5001"/>
</g>
<!-- ProfilePageComponent -->
<g id="node11" class="node">
<title>ProfilePageComponent</title>
<polygon fill="#ffffb3" stroke="#000000" points="2390.1442,-122 2243.8558,-122 2243.8558,-86 2390.1442,-86 2390.1442,-122"/>
<text text-anchor="middle" x="2317" y="-99.8" font-family="Times,serif" font-size="14.00" fill="#000000">ProfilePageComponent</text>
</g>
<!-- ProfilePageComponent&#45;&gt;AppModule -->
<g id="edge11" class="edge">
<title>ProfilePageComponent&#45;&gt;AppModule</title>
<path fill="none" stroke="#000000" d="M2288.0738,-122.1871C2288.0738,-137.1824 2288.0738,-156 2288.0738,-156 2288.0738,-156 2042.9333,-156 2042.9333,-156"/>
<polygon fill="#000000" stroke="#000000" points="2042.9334,-152.5001 2032.9333,-156 2042.9333,-159.5001 2042.9334,-152.5001"/>
</g>
<!-- ProgressPageComponent -->
<g id="node12" class="node">
<title>ProgressPageComponent</title>
<polygon fill="#ffffb3" stroke="#000000" points="2225.252,-122 2068.748,-122 2068.748,-86 2225.252,-86 2225.252,-122"/>
<text text-anchor="middle" x="2147" y="-99.8" font-family="Times,serif" font-size="14.00" fill="#000000">ProgressPageComponent</text>
</g>
<!-- ProgressPageComponent&#45;&gt;AppModule -->
<g id="edge12" class="edge">
<title>ProgressPageComponent&#45;&gt;AppModule</title>
<path fill="none" stroke="#000000" d="M2075.5783,-122.0511C2075.5783,-136.373 2075.5783,-154 2075.5783,-154 2075.5783,-154 2042.7936,-154 2042.7936,-154"/>
<polygon fill="#000000" stroke="#000000" points="2042.7936,-150.5001 2032.7936,-154 2042.7936,-157.5001 2042.7936,-150.5001"/>
</g>
<!-- ReportComponent -->
<g id="node13" class="node">
<title>ReportComponent</title>
<polygon fill="#ffffb3" stroke="#000000" points="2050.9356,-122 1931.0644,-122 1931.0644,-86 2050.9356,-86 2050.9356,-122"/>
<text text-anchor="middle" x="1991" y="-99.8" font-family="Times,serif" font-size="14.00" fill="#000000">ReportComponent</text>
</g>
<!-- ReportComponent&#45;&gt;AppModule -->
<g id="edge13" class="edge">
<title>ReportComponent&#45;&gt;AppModule</title>
<path fill="none" stroke="#000000" d="M1991,-122.1061C1991,-122.1061 1991,-140.991 1991,-140.991"/>
<polygon fill="#000000" stroke="#000000" points="1987.5001,-140.9909 1991,-150.991 1994.5001,-140.991 1987.5001,-140.9909"/>
</g>
<!-- SignInComponent -->
<g id="node14" class="node">
<title>SignInComponent</title>
<polygon fill="#ffffb3" stroke="#000000" points="1913.1667,-122 1794.8333,-122 1794.8333,-86 1913.1667,-86 1913.1667,-122"/>
<text text-anchor="middle" x="1854" y="-99.8" font-family="Times,serif" font-size="14.00" fill="#000000">SignInComponent</text>
</g>
<!-- SignInComponent&#45;&gt;AppModule -->
<g id="edge14" class="edge">
<title>SignInComponent&#45;&gt;AppModule</title>
<path fill="none" stroke="#000000" d="M1906.0149,-122.0511C1906.0149,-136.373 1906.0149,-154 1906.0149,-154 1906.0149,-154 1939.0054,-154 1939.0054,-154"/>
<polygon fill="#000000" stroke="#000000" points="1939.0054,-157.5001 1949.0054,-154 1939.0054,-150.5001 1939.0054,-157.5001"/>
</g>
<!-- SignUpComponent -->
<g id="node15" class="node">
<title>SignUpComponent</title>
<polygon fill="#ffffb3" stroke="#000000" points="1777.1123,-122 1652.8877,-122 1652.8877,-86 1777.1123,-86 1777.1123,-122"/>
<text text-anchor="middle" x="1715" y="-99.8" font-family="Times,serif" font-size="14.00" fill="#000000">SignUpComponent</text>
</g>
<!-- SignUpComponent&#45;&gt;AppModule -->
<g id="edge15" class="edge">
<title>SignUpComponent&#45;&gt;AppModule</title>
<path fill="none" stroke="#000000" d="M1770.1797,-122.1871C1770.1797,-137.1824 1770.1797,-156 1770.1797,-156 1770.1797,-156 1939.2058,-156 1939.2058,-156"/>
<polygon fill="#000000" stroke="#000000" points="1939.2058,-159.5001 1949.2058,-156 1939.2058,-152.5001 1939.2058,-159.5001"/>
</g>
<!-- TodoListComponent -->
<g id="node16" class="node">
<title>TodoListComponent</title>
<polygon fill="#ffffb3" stroke="#000000" points="1635.1638,-122 1502.8362,-122 1502.8362,-86 1635.1638,-86 1635.1638,-122"/>
<text text-anchor="middle" x="1569" y="-99.8" font-family="Times,serif" font-size="14.00" fill="#000000">TodoListComponent</text>
</g>
<!-- TodoListComponent&#45;&gt;AppModule -->
<g id="edge16" class="edge">
<title>TodoListComponent&#45;&gt;AppModule</title>
<path fill="none" stroke="#000000" d="M1617.1019,-122.2819C1617.1019,-137.9478 1617.1019,-158 1617.1019,-158 1617.1019,-158 1939.1975,-158 1939.1975,-158"/>
<polygon fill="#000000" stroke="#000000" points="1939.1975,-161.5001 1949.1975,-158 1939.1974,-154.5001 1939.1975,-161.5001"/>
</g>
<!-- TodoListFooterComponent -->
<g id="node17" class="node">
<title>TodoListFooterComponent</title>
<polygon fill="#ffffb3" stroke="#000000" points="1484.7119,-122 1315.2881,-122 1315.2881,-86 1484.7119,-86 1484.7119,-122"/>
<text text-anchor="middle" x="1400" y="-99.8" font-family="Times,serif" font-size="14.00" fill="#000000">TodoListFooterComponent</text>
</g>
<!-- TodoListFooterComponent&#45;&gt;AppModule -->
<g id="edge17" class="edge">
<title>TodoListFooterComponent&#45;&gt;AppModule</title>
<path fill="none" stroke="#000000" d="M1467.6323,-122.027C1467.6323,-138.3976 1467.6323,-160 1467.6323,-160 1467.6323,-160 1939.0553,-160 1939.0553,-160"/>
<polygon fill="#000000" stroke="#000000" points="1939.0554,-163.5001 1949.0553,-160 1939.0553,-156.5001 1939.0554,-163.5001"/>
</g>
<!-- TodoListHeaderComponent -->
<g id="node18" class="node">
<title>TodoListHeaderComponent</title>
<polygon fill="#ffffb3" stroke="#000000" points="1297.5744,-122 1124.4256,-122 1124.4256,-86 1297.5744,-86 1297.5744,-122"/>
<text text-anchor="middle" x="1211" y="-99.8" font-family="Times,serif" font-size="14.00" fill="#000000">TodoListHeaderComponent</text>
</g>
<!-- TodoListHeaderComponent&#45;&gt;AppModule -->
<g id="edge18" class="edge">
<title>TodoListHeaderComponent&#45;&gt;AppModule</title>
<path fill="none" stroke="#000000" d="M1211,-122.0225C1211,-139.3734 1211,-163 1211,-163 1211,-163 1939.3396,-163 1939.3396,-163"/>
<polygon fill="#000000" stroke="#000000" points="1939.3396,-166.5001 1949.3396,-163 1939.3395,-159.5001 1939.3396,-166.5001"/>
</g>
<!-- TodoListItemComponent -->
<g id="node19" class="node">
<title>TodoListItemComponent</title>
<polygon fill="#ffffb3" stroke="#000000" points="1106.3201,-122 947.6799,-122 947.6799,-86 1106.3201,-86 1106.3201,-122"/>
<text text-anchor="middle" x="1027" y="-99.8" font-family="Times,serif" font-size="14.00" fill="#000000">TodoListItemComponent</text>
</g>
<!-- TodoListItemComponent&#45;&gt;AppModule -->
<g id="edge19" class="edge">
<title>TodoListItemComponent&#45;&gt;AppModule</title>
<path fill="none" stroke="#000000" d="M1027,-122.302C1027,-140.2699 1027,-165 1027,-165 1027,-165 1939.2687,-165 1939.2687,-165"/>
<polygon fill="#000000" stroke="#000000" points="1939.2687,-168.5001 1949.2687,-165 1939.2687,-161.5001 1939.2687,-168.5001"/>
</g>
<!-- VerifyEmailComponent -->
<g id="node20" class="node">
<title>VerifyEmailComponent</title>
<polygon fill="#ffffb3" stroke="#000000" points="929.8047,-122 778.1953,-122 778.1953,-86 929.8047,-86 929.8047,-122"/>
<text text-anchor="middle" x="854" y="-99.8" font-family="Times,serif" font-size="14.00" fill="#000000">VerifyEmailComponent</text>
</g>
<!-- VerifyEmailComponent&#45;&gt;AppModule -->
<g id="edge20" class="edge">
<title>VerifyEmailComponent&#45;&gt;AppModule</title>
<path fill="none" stroke="#000000" d="M854,-122.2222C854,-140.8285 854,-167 854,-167 854,-167 1939.1851,-167 1939.1851,-167"/>
<polygon fill="#000000" stroke="#000000" points="1939.1852,-170.5001 1949.1851,-167 1939.1851,-163.5001 1939.1852,-170.5001"/>
</g>
<!-- AppComponent  -->
<g id="node23" class="node">
<title>AppComponent </title>
<polygon fill="#fb8072" stroke="#000000" points="2332.439,-252 2223.561,-252 2223.561,-216 2332.439,-216 2332.439,-252"/>
<text text-anchor="middle" x="2278" y="-229.8" font-family="Times,serif" font-size="14.00" fill="#000000">AppComponent </text>
</g>
<!-- AppModule&#45;&gt;AppComponent  -->
<g id="edge22" class="edge">
<title>AppModule&#45;&gt;AppComponent </title>
<path fill="none" stroke="#000000" stroke-dasharray="5,2" d="M2032.8878,-183C2101.786,-183 2231.4766,-183 2231.4766,-183 2231.4766,-183 2231.4766,-205.8757 2231.4766,-205.8757"/>
<polygon fill="#000000" stroke="#000000" points="2227.9767,-205.8757 2231.4766,-215.8757 2234.9767,-205.8757 2227.9767,-205.8757"/>
</g>
<!-- AppModule&#45;&gt;AppComponent  -->
<g id="edge28" class="edge">
<title>AppModule&#45;&gt;AppComponent </title>
<path fill="none" stroke="#000000" stroke-dasharray="1,5" d="M2032.8285,-181C2103.1781,-181 2237.5774,-181 2237.5774,-181 2237.5774,-181 2237.5774,-205.7604 2237.5774,-205.7604"/>
<polygon fill="#000000" stroke="#000000" points="2234.0775,-205.7604 2237.5774,-215.7604 2241.0775,-205.7604 2234.0775,-205.7604"/>
</g>
<!-- DialogComponent  -->
<g id="node24" class="node">
<title>DialogComponent </title>
<polygon fill="#fb8072" stroke="#000000" points="2205.4348,-252 2082.5652,-252 2082.5652,-216 2205.4348,-216 2205.4348,-252"/>
<text text-anchor="middle" x="2144" y="-229.8" font-family="Times,serif" font-size="14.00" fill="#000000">DialogComponent </text>
</g>
<!-- AppModule&#45;&gt;DialogComponent  -->
<g id="edge23" class="edge">
<title>AppModule&#45;&gt;DialogComponent </title>
<path fill="none" stroke="#000000" stroke-dasharray="5,2" d="M2032.8079,-185C2078.1084,-185 2144,-185 2144,-185 2144,-185 2144,-205.7542 2144,-205.7542"/>
<polygon fill="#000000" stroke="#000000" points="2140.5001,-205.7542 2144,-215.7542 2147.5001,-205.7542 2140.5001,-205.7542"/>
</g>
<!-- FoodDetailComponent  -->
<g id="node25" class="node">
<title>FoodDetailComponent </title>
<polygon fill="#fb8072" stroke="#000000" points="2064.8227,-252 1917.1773,-252 1917.1773,-216 2064.8227,-216 2064.8227,-252"/>
<text text-anchor="middle" x="1991" y="-229.8" font-family="Times,serif" font-size="14.00" fill="#000000">FoodDetailComponent </text>
</g>
<!-- AppModule&#45;&gt;FoodDetailComponent  -->
<g id="edge24" class="edge">
<title>AppModule&#45;&gt;FoodDetailComponent </title>
<path fill="none" stroke="#000000" stroke-dasharray="5,2" d="M1991,-187.1061C1991,-187.1061 1991,-205.991 1991,-205.991"/>
<polygon fill="#000000" stroke="#000000" points="1987.5001,-205.9909 1991,-215.991 1994.5001,-205.991 1987.5001,-205.9909"/>
</g>
<!-- FoodListComponent  -->
<g id="node26" class="node">
<title>FoodListComponent </title>
<polygon fill="#fb8072" stroke="#000000" points="1898.894,-252 1763.106,-252 1763.106,-216 1898.894,-216 1898.894,-252"/>
<text text-anchor="middle" x="1831" y="-229.8" font-family="Times,serif" font-size="14.00" fill="#000000">FoodListComponent </text>
</g>
<!-- AppModule&#45;&gt;FoodListComponent  -->
<g id="edge25" class="edge">
<title>AppModule&#45;&gt;FoodListComponent </title>
<path fill="none" stroke="#000000" stroke-dasharray="5,2" d="M1949.2572,-185C1906.6345,-185 1846.6818,-185 1846.6818,-185 1846.6818,-185 1846.6818,-205.7542 1846.6818,-205.7542"/>
<polygon fill="#000000" stroke="#000000" points="1843.1819,-205.7542 1846.6818,-215.7542 1850.1819,-205.7542 1843.1819,-205.7542"/>
</g>
<!-- HomePageComponent  -->
<g id="node27" class="node">
<title>HomePageComponent </title>
<polygon fill="#fb8072" stroke="#000000" points="1745.2562,-252 1598.7438,-252 1598.7438,-216 1745.2562,-216 1745.2562,-252"/>
<text text-anchor="middle" x="1672" y="-229.8" font-family="Times,serif" font-size="14.00" fill="#000000">HomePageComponent </text>
</g>
<!-- AppModule&#45;&gt;HomePageComponent  -->
<g id="edge26" class="edge">
<title>AppModule&#45;&gt;HomePageComponent </title>
<path fill="none" stroke="#000000" stroke-dasharray="5,2" d="M1949.1687,-183C1868.438,-183 1699.036,-183 1699.036,-183 1699.036,-183 1699.036,-205.8757 1699.036,-205.8757"/>
<polygon fill="#000000" stroke="#000000" points="1695.536,-205.8757 1699.036,-215.8757 1702.536,-205.8757 1695.536,-205.8757"/>
</g>
<!-- LongPressDirective  -->
<g id="node28" class="node">
<title>LongPressDirective </title>
<polygon fill="#fb8072" stroke="#000000" points="1581.1828,-252 1450.8172,-252 1450.8172,-216 1581.1828,-216 1581.1828,-252"/>
<text text-anchor="middle" x="1516" y="-229.8" font-family="Times,serif" font-size="14.00" fill="#000000">LongPressDirective </text>
</g>
<!-- AppModule&#45;&gt;LongPressDirective  -->
<g id="edge27" class="edge">
<title>AppModule&#45;&gt;LongPressDirective </title>
<path fill="none" stroke="#000000" stroke-dasharray="5,2" d="M1949.1628,-181C1837.6997,-181 1542.0048,-181 1542.0048,-181 1542.0048,-181 1542.0048,-205.7604 1542.0048,-205.7604"/>
<polygon fill="#000000" stroke="#000000" points="1538.5048,-205.7604 1542.0048,-215.7604 1545.5048,-205.7604 1538.5048,-205.7604"/>
</g>
<!-- AppRoutingModule -->
<g id="node22" class="node">
<title>AppRoutingModule</title>
<polygon fill="#8dd3c7" stroke="#000000" points="754.2744,-122 751.2744,-126 730.2744,-126 727.2744,-122 625.7256,-122 625.7256,-86 754.2744,-86 754.2744,-122"/>
<text text-anchor="middle" x="690" y="-99.8" font-family="Times,serif" font-size="14.00" fill="#000000">AppRoutingModule</text>
</g>
<!-- AppRoutingModule&#45;&gt;AppModule -->
<g id="edge21" class="edge">
<title>AppRoutingModule&#45;&gt;AppModule</title>
<path fill="none" stroke="#000000" d="M690,-122.1061C690,-141.3391 690,-169 690,-169 690,-169 1939.1869,-169 1939.1869,-169"/>
<polygon fill="#000000" stroke="#000000" points="1939.1869,-172.5001 1949.1869,-169 1939.1869,-165.5001 1939.1869,-172.5001"/>
</g>
<!-- ActiveStateService -->
<g id="node29" class="node">
<title>ActiveStateService</title>
<ellipse fill="#fdb462" stroke="#000000" cx="517" cy="-104" rx="85.0831" ry="18"/>
<text text-anchor="middle" x="517" y="-99.8" font-family="Times,serif" font-size="14.00" fill="#000000">ActiveStateService</text>
</g>
<!-- ActiveStateService&#45;&gt;AppModule -->
<g id="edge29" class="edge">
<title>ActiveStateService&#45;&gt;AppModule</title>
<path fill="none" stroke="#000000" d="M517,-122.2228C517,-142.3652 517,-172 517,-172 517,-172 1939.2604,-172 1939.2604,-172"/>
<polygon fill="#000000" stroke="#000000" points="1939.2604,-175.5001 1949.2604,-172 1939.2604,-168.5001 1939.2604,-175.5001"/>
</g>
<!-- ApiService -->
<g id="node30" class="node">
<title>ApiService</title>
<ellipse fill="#fdb462" stroke="#000000" cx="359" cy="-104" rx="54.4508" ry="18"/>
<text text-anchor="middle" x="359" y="-99.8" font-family="Times,serif" font-size="14.00" fill="#000000">ApiService</text>
</g>
<!-- ApiService&#45;&gt;AppModule -->
<g id="edge30" class="edge">
<title>ApiService&#45;&gt;AppModule</title>
<path fill="none" stroke="#000000" d="M359,-122.0267C359,-142.7672 359,-174 359,-174 359,-174 1939.0182,-174 1939.0182,-174"/>
<polygon fill="#000000" stroke="#000000" points="1939.0182,-177.5001 1949.0182,-174 1939.0181,-170.5001 1939.0182,-177.5001"/>
</g>
<!-- AuthService -->
<g id="node31" class="node">
<title>AuthService</title>
<ellipse fill="#fdb462" stroke="#000000" cx="227" cy="-104" rx="59.1083" ry="18"/>
<text text-anchor="middle" x="227" y="-99.8" font-family="Times,serif" font-size="14.00" fill="#000000">AuthService</text>
</g>
<!-- AuthService&#45;&gt;AppModule -->
<g id="edge31" class="edge">
<title>AuthService&#45;&gt;AppModule</title>
<path fill="none" stroke="#000000" d="M227,-122.1686C227,-143.498 227,-176 227,-176 227,-176 1939.1351,-176 1939.1351,-176"/>
<polygon fill="#000000" stroke="#000000" points="1939.1352,-179.5001 1949.1351,-176 1939.1351,-172.5001 1939.1352,-179.5001"/>
</g>
<!-- EventService -->
<g id="node32" class="node">
<title>EventService</title>
<ellipse fill="#fdb462" stroke="#000000" cx="87" cy="-104" rx="62.5373" ry="18"/>
<text text-anchor="middle" x="87" y="-99.8" font-family="Times,serif" font-size="14.00" fill="#000000">EventService</text>
</g>
<!-- EventService&#45;&gt;AppModule -->
<g id="edge32" class="edge">
<title>EventService&#45;&gt;AppModule</title>
<path fill="none" stroke="#000000" d="M87,-122.2921C87,-144.2057 87,-178 87,-178 87,-178 1939.0132,-178 1939.0132,-178"/>
<polygon fill="#000000" stroke="#000000" points="1939.0133,-181.5001 1949.0132,-178 1939.0132,-174.5001 1939.0133,-181.5001"/>
</g>
<!-- StylizePipe -->
<g id="node33" class="node">
<title>StylizePipe</title>
<polygon fill="#ffffb3" stroke="#000000" points="4057.7717,-122 3978.2283,-122 3978.2283,-86 4057.7717,-86 4057.7717,-122"/>
<text text-anchor="middle" x="4018" y="-99.8" font-family="Times,serif" font-size="14.00" fill="#000000">StylizePipe</text>
</g>
<!-- ChatModule -->
<g id="node34" class="node">
<title>ChatModule</title>
<polygon fill="#8dd3c7" stroke="#000000" points="4060.9916,-187 4057.9916,-191 4036.9916,-191 4033.9916,-187 3975.0084,-187 3975.0084,-151 4060.9916,-151 4060.9916,-187"/>
<text text-anchor="middle" x="4018" y="-164.8" font-family="Times,serif" font-size="14.00" fill="#000000">ChatModule</text>
</g>
<!-- StylizePipe&#45;&gt;ChatModule -->
<g id="edge33" class="edge">
<title>StylizePipe&#45;&gt;ChatModule</title>
<path fill="none" stroke="#000000" d="M4018,-122.1061C4018,-122.1061 4018,-140.991 4018,-140.991"/>
<polygon fill="#000000" stroke="#000000" points="4014.5001,-140.9909 4018,-150.991 4021.5001,-140.991 4014.5001,-140.9909"/>
</g>
<!-- MiComponenteComponent -->
<g id="node35" class="node">
<title>MiComponenteComponent</title>
<polygon fill="#ffffb3" stroke="#000000" points="4267.7147,-122 4098.2853,-122 4098.2853,-86 4267.7147,-86 4267.7147,-122"/>
<text text-anchor="middle" x="4183" y="-99.8" font-family="Times,serif" font-size="14.00" fill="#000000">MiComponenteComponent</text>
</g>
<!-- ModulModule -->
<g id="node36" class="node">
<title>ModulModule</title>
<polygon fill="#8dd3c7" stroke="#000000" points="4231.3851,-187 4228.3851,-191 4207.3851,-191 4204.3851,-187 4134.6149,-187 4134.6149,-151 4231.3851,-151 4231.3851,-187"/>
<text text-anchor="middle" x="4183" y="-164.8" font-family="Times,serif" font-size="14.00" fill="#000000">ModulModule</text>
</g>
<!-- MiComponenteComponent&#45;&gt;ModulModule -->
<g id="edge34" class="edge">
<title>MiComponenteComponent&#45;&gt;ModulModule</title>
<path fill="none" stroke="#000000" d="M4183,-122.1061C4183,-122.1061 4183,-140.991 4183,-140.991"/>
<polygon fill="#000000" stroke="#000000" points="4179.5001,-140.9909 4183,-150.991 4186.5001,-140.991 4179.5001,-140.9909"/>
</g>
</g>
</svg>
